<svg id="liked" xmlns="http://www.w3.org/2000/svg" width="21.928" height="18.252" viewBox="0 0 21.928 18.252">
  <path id="heart" d="M12.513,5.572,11.374,4.485a5.959,5.959,0,0,0-8.15,0,5.324,5.324,0,0,0,0,7.778L12.485,21.1l0,0,.028.026,9.261-8.839a5.324,5.324,0,0,0,0-7.778,5.959,5.959,0,0,0-8.15,0Zm-.026,12.7,5.172-4.936,1.52-1.4h0l1.113-1.062a3.388,3.388,0,0,0,0-4.95,3.792,3.792,0,0,0-5.186,0L12.514,8.4l-.008-.007h0L9.892,5.9a3.792,3.792,0,0,0-5.186,0,3.388,3.388,0,0,0,0,4.95l2.661,2.539,0,0Z" transform="translate(-1.536 -2.874)" fill="#fff" fill-rule="evenodd"/>
</svg>
