<svg id="coffee" xmlns="http://www.w3.org/2000/svg" width="21" height="18" viewBox="0 0 21 18">
  <path id="Path_302" data-name="Path 302" d="M6,2.5a1,1,0,0,0-1,1v2a1,1,0,0,0,2,0v-2A1,1,0,0,0,6,2.5Z" transform="translate(-1.2 -2.5)" fill="#fff"/>
  <path id="Path_303" data-name="Path 303" d="M12.455,20.5A5.685,5.685,0,0,0,18.1,15.857h.079a3.716,3.716,0,1,0,0-7.429V7.5H1v7.429A5.651,5.651,0,0,0,6.727,20.5ZM2.909,9.357v5.571a3.767,3.767,0,0,0,3.818,3.714h5.727a3.767,3.767,0,0,0,3.818-3.714V9.357Zm17.182,2.786A1.884,1.884,0,0,1,18.182,14V10.286A1.884,1.884,0,0,1,20.091,12.143Z" transform="translate(-1 -2.5)" fill="#fff" fill-rule="evenodd"/>
  <path id="Path_304" data-name="Path 304" d="M9,3.5a1,1,0,0,1,2,0v2a1,1,0,0,1-2,0Z" transform="translate(-1.4 -2.5)" fill="#fff"/>
  <path id="Path_305" data-name="Path 305" d="M14,2.5a1,1,0,0,0-1,1v2a1,1,0,0,0,2,0v-2A1,1,0,0,0,14,2.5Z" transform="translate(-1.6 -2.5)" fill="#fff"/>
</svg>
