<svg xmlns="http://www.w3.org/2000/svg" width="44.953" height="27.922" viewBox="0 0 44.953 27.922">
  <g id="smartcamera" transform="translate(-1 154)">
    <g id="Group_1" data-name="Group 1" transform="translate(1 -154)">
      <path id="Path_3" data-name="Path 3" d="M1089.2,309.872l-8.808,13.5h17.616Zm0,2.931,5.947,8.963h-11.894Z" transform="translate(-1066.606 -295.554)" fill="#53b9a6"/>
      <path id="Path_4" data-name="Path 4" d="M1063.517,304.558h1.992l11.462-17.85,11.612,17.85h1.165l4.81-15.671-1.8.827L1088.883,302l-11.913-18.339Z" transform="translate(-1054.57 -276.862)" fill="#53b9a6"/>
      <path id="Path_5" data-name="Path 5" d="M1163.125,310.259h1.86l5.581-18.6-2.086,1.015Z" transform="translate(-1125.612 -282.563)" fill="#53b9a6"/>
      <path id="Path_6" data-name="Path 6" d="M1032.318,269.039l5.712,18.827h.639l16.122-24.953,11.2,16.76.526-2.067-11.687-17.662-16.009,24.69-4.585-14.506Z" transform="translate(-1032.318 -259.945)" fill="#53b9a6"/>
      <path id="Path_7" data-name="Path 7" d="M1049.26,301.166l2.255,6.99,1.127-2.029-1.353-3.983Z" transform="translate(-1044.401 -289.345)" fill="#53b9a6"/>
    </g>
  </g>
</svg>
